<svg version="1.1" viewBox="0.0 0.0 600.0 371.0" fill="none" stroke="none" stroke-linecap="square" stroke-miterlimit="10" width="600" height="371" xmlns:xlink="http://www.w3.org/1999/xlink" xmlns="http://www.w3.org/2000/svg"><path fill="#ffffff" d="M0 0L600.0 0L600.0 371.0L0 371.0L0 0Z" fill-rule="nonzero"/><path stroke="#333333" stroke-width="1.0" stroke-linecap="butt" d="M77.5 318.5L581.5 318.5" fill-rule="nonzero"/><path stroke="#cccccc" stroke-width="1.0" stroke-linecap="butt" d="M77.5 245.5L581.5 245.5" fill-rule="nonzero"/><path stroke="#cccccc" stroke-width="1.0" stroke-linecap="butt" d="M77.5 172.5L581.5 172.5" fill-rule="nonzero"/><path stroke="#cccccc" stroke-width="1.0" stroke-linecap="butt" d="M77.5 98.5L581.5 98.5" fill-rule="nonzero"/><path stroke="#cccccc" stroke-width="1.0" stroke-linecap="butt" d="M77.5 25.5L581.5 25.5" fill-rule="nonzero"/><clipPath id="id_0"><path d="M77.55 25.55L581.45 25.55L581.45 318.45L77.55 318.45L77.55 25.55Z" clip-rule="nonzero"/></clipPath><path stroke="#000000" stroke-width="2.0" stroke-linecap="butt" stroke-opacity="0.0" clip-path="url(#id_0)" d="M172.0 318.0L111.0 318.0L111.0 42.0C111.0 40.89543 111.89543 40.0 113.0 40.0L170.0 40.0C171.10457 40.0 172.0 40.89543 172.0 42.0Z" fill-rule="nonzero"/><path fill="#4285f4" clip-path="url(#id_0)" d="M172.0 318.0L111.0 318.0L111.0 42.0C111.0 40.89543 111.89543 40.0 113.0 40.0L170.0 40.0C171.10457 40.0 172.0 40.89543 172.0 42.0Z" fill-rule="nonzero"/><path stroke="#000000" stroke-width="2.0" stroke-linecap="butt" stroke-opacity="0.0" clip-path="url(#id_0)" d="M266.0 318.0L205.0 318.0L205.0 71.0C205.0 69.89543 205.89543 69.0 207.0 69.0L264.0 69.0C265.10458 69.0 266.0 69.89543 266.0 71.0Z" fill-rule="nonzero"/><path fill="#4285f4" clip-path="url(#id_0)" d="M266.0 318.0L205.0 318.0L205.0 71.0C205.0 69.89543 205.89543 69.0 207.0 69.0L264.0 69.0C265.10458 69.0 266.0 69.89543 266.0 71.0Z" fill-rule="nonzero"/><path stroke="#000000" stroke-width="2.0" stroke-linecap="butt" stroke-opacity="0.0" clip-path="url(#id_0)" d="M361.0 318.0L300.0 318.0L300.0 115.0C300.0 113.89543 300.89542 113.0 302.0 113.0L359.0 113.0C360.10458 113.0 361.0 113.89543 361.0 115.0Z" fill-rule="nonzero"/><path fill="#4285f4" clip-path="url(#id_0)" d="M361.0 318.0L300.0 318.0L300.0 115.0C300.0 113.89543 300.89542 113.0 302.0 113.0L359.0 113.0C360.10458 113.0 361.0 113.89543 361.0 115.0Z" fill-rule="nonzero"/><path stroke="#000000" stroke-width="2.0" stroke-linecap="butt" stroke-opacity="0.0" clip-path="url(#id_0)" d="M455.0 318.0L394.0 318.0L394.0 174.0C394.0 172.89543 394.89542 172.0 396.0 172.0L453.0 172.0C454.10458 172.0 455.0 172.89543 455.0 174.0Z" fill-rule="nonzero"/><path fill="#4285f4" clip-path="url(#id_0)" d="M455.0 318.0L394.0 318.0L394.0 174.0C394.0 172.89543 394.89542 172.0 396.0 172.0L453.0 172.0C454.10458 172.0 455.0 172.89543 455.0 174.0Z" fill-rule="nonzero"/><path stroke="#000000" stroke-width="2.0" stroke-linecap="butt" stroke-opacity="0.0" clip-path="url(#id_0)" d="M549.0 318.0L488.0 318.0L488.0 233.0C488.0 231.89543 488.89542 231.0 490.0 231.0L547.0 231.0C548.10455 231.0 549.0 231.89543 549.0 233.0Z" fill-rule="nonzero"/><path fill="#4285f4" clip-path="url(#id_0)" d="M549.0 318.0L488.0 318.0L488.0 233.0C488.0 231.89543 488.89542 231.0 490.0 231.0L547.0 231.0C548.10455 231.0 549.0 231.89543 549.0 233.0Z" fill-rule="nonzero"/><path fill="#000000" d="M26.784388 208.45312L26.690638 207.39062Q27.346888 207.3125 27.753138 207.03125Q28.159388 206.75 28.425013 206.17188Q28.675013 205.57812 28.675013 204.84375Q28.675013 204.20312 28.487513 203.70312Q28.284388 203.20312 27.956263 202.96875Q27.612513 202.71875 27.221888 202.71875Q26.815638 202.71875 26.518763 202.95312Q26.206263 203.1875 26.003138 203.71875Q25.862513 204.07812 25.581263 205.26562Q25.300013 206.4375 25.050013 206.90625Q24.721888 207.53125 24.253138 207.82812Q23.768763 208.125 23.175013 208.125Q22.534388 208.125 21.971888 207.76562Q21.393763 207.39062 21.112513 206.6875Q20.815638 205.96875 20.815638 205.10938Q20.815638 204.15625 21.128138 203.42188Q21.425013 202.6875 22.034388 202.29688Q22.628138 201.90625 23.378138 201.875L23.456263 202.96875Q22.643763 203.0625 22.237513 203.57812Q21.815638 204.07812 21.815638 205.0625Q21.815638 206.09375 22.190638 206.5625Q22.565638 207.03125 23.096888 207.03125Q23.565638 207.03125 23.862513 206.70312Q24.159388 206.375 24.471888 205.0Q24.784388 203.60938 25.018763 203.09375Q25.378138 202.34375 25.909388 201.98438Q26.425013 201.625 27.128138 201.625Q27.815638 201.625 28.425013 202.01562Q29.018763 202.40625 29.362513 203.14062Q29.690638 203.875 29.690638 204.79688Q29.690638 205.96875 29.362513 206.76562Q29.018763 207.54688 28.331263 208.0Q27.643763 208.4375 26.784388 208.45312ZM22.175013 200.20312L20.956263 200.20312L20.956263 199.14062L22.175013 199.14062L22.175013 200.20312ZM29.550013 200.20312L23.331263 200.20312L23.331263 199.14062L29.550013 199.14062L29.550013 200.20312ZM29.550013 197.76562L28.690638 197.76562L24.143763 193.79688Q24.175013 194.48438 24.175013 195.0L24.175013 197.53125L23.331263 197.53125L23.331263 192.4375L24.018763 192.4375L27.971888 195.8125L28.690638 196.46875Q28.643763 195.75 28.643763 195.14062L28.643763 192.25L29.550013 192.25L29.550013 197.76562ZM27.550013 187.95312L27.675013 186.85938Q28.628138 187.10938 29.159388 187.8125Q29.690638 188.51562 29.690638 189.59375Q29.690638 190.95312 28.846888 191.76562Q28.003138 192.5625 26.487513 192.5625Q24.925013 192.5625 24.065638 191.75Q23.190638 190.9375 23.190638 189.65625Q23.190638 188.40625 24.034388 187.625Q24.878138 186.82812 26.425013 186.82812Q26.518763 186.82812 26.706263 186.82812L26.706263 191.46875Q27.737513 191.40625 28.284388 190.89062Q28.815638 190.375 28.815638 189.59375Q28.815638 189.01562 28.518763 188.60938Q28.206263 188.1875 27.550013 187.95312ZM25.846888 191.40625L25.846888 187.9375Q25.050013 188.0 24.659388 188.32812Q24.050013 188.84375 24.050013 189.64062Q24.050013 190.375 24.534388 190.875Q25.018763 191.35938 25.846888 191.40625ZM32.08126 180.1875Q30.971888 181.0625 29.503138 181.67188Q28.018763 182.26562 26.440638 182.26562Q25.050013 182.26562 23.768763 181.82812Q22.284388 181.29688 20.815638 180.1875L20.815638 179.4375Q22.034388 180.14062 22.550013 180.375Q23.362513 180.73438 24.237513 180.9375Q25.331263 181.1875 26.440638 181.1875Q29.268763 181.1875 32.08126 179.4375L32.08126 180.1875ZM29.550013 178.20312L20.956263 178.20312L20.956263 177.14062L25.862513 177.14062L23.331263 174.65625L23.331263 173.28125L25.628138 175.67188L29.550013 173.04688L29.550013 174.34375L26.362513 176.40625L27.081263 177.14062L29.550013 177.14062L29.550013 178.20312ZM29.550013 171.23438L29.550013 172.21875L20.956263 172.21875L20.956263 171.15625L24.018763 171.15625Q23.190638 170.48438 23.190638 169.45312Q23.190638 168.875 23.425013 168.375Q23.643763 167.85938 24.065638 167.53125Q24.487513 167.1875 25.081263 167.0Q25.675013 166.8125 26.346888 166.8125Q27.940638 166.8125 28.815638 167.60938Q29.690638 168.40625 29.690638 169.5Q29.690638 170.60938 28.768763 171.23438L29.550013 171.23438ZM26.393763 171.25Q27.503138 171.25 28.003138 170.9375Q28.815638 170.4375 28.815638 169.59375Q28.815638 168.90625 28.221888 168.40625Q27.628138 167.89062 26.425013 167.89062Q25.206263 167.89062 24.628138 168.375Q24.050013 168.85938 24.050013 169.54688Q24.050013 170.23438 24.659388 170.75Q25.253138 171.25 26.393763 171.25ZM32.08126 164.51562L32.08126 165.26562Q29.268763 163.51562 26.440638 163.51562Q25.346888 163.51562 24.253138 163.76562Q23.378138 163.96875 22.565638 164.32812Q22.050013 164.5625 20.815638 165.26562L20.815638 164.51562Q22.284388 163.42188 23.768763 162.89062Q25.050013 162.4375 26.440638 162.4375Q28.018763 162.4375 29.503138 163.04688Q30.971888 163.65625 32.08126 164.51562Z" fill-rule="nonzero"/><path fill="#000000" d="M65.05 318.21564Q65.05 316.6844 65.3625 315.7625Q65.675 314.825 66.28438 314.325Q66.90938 313.825 67.84688 313.825Q68.53438 313.825 69.05 314.10626Q69.58125 314.3875 69.925 314.91876Q70.26875 315.4344 70.45625 316.1844Q70.64375 316.9344 70.64375 318.21564Q70.64375 319.73126 70.33125 320.65314Q70.03438 321.575 69.40938 322.09064Q68.8 322.59064 67.84688 322.59064Q66.6125 322.59064 65.89375 321.7Q65.05 320.6375 65.05 318.21564ZM66.12813 318.21564Q66.12813 320.325 66.62813 321.02814Q67.12813 321.73126 67.84688 321.73126Q68.58125 321.73126 69.06563 321.02814Q69.56563 320.325 69.56563 318.21564Q69.56563 316.09064 69.06563 315.40314Q68.58125 314.7 67.83125 314.7Q67.1125 314.7 66.675 315.3094Q66.12813 316.09064 66.12813 318.21564Z" fill-rule="nonzero"/><path fill="#000000" d="M63.596874 248.20938L63.596874 249.225L57.909374 249.225Q57.909374 248.85 58.034374 248.49063Q58.253124 247.9125 58.721874 247.35Q59.20625 246.7875 60.1125 246.05313Q61.51875 244.89688 62.003124 244.225Q62.503124 243.55313 62.503124 242.95938Q62.503124 242.33438 62.05 241.9125Q61.596874 241.475 60.878124 241.475Q60.1125 241.475 59.659374 241.92813Q59.20625 242.38126 59.190624 243.19376L58.1125 243.08438Q58.221874 241.86563 58.940624 241.24063Q59.675 240.6 60.909374 240.6Q62.14375 240.6 62.8625 241.2875Q63.58125 241.975 63.58125 242.99063Q63.58125 243.50626 63.3625 244.00626Q63.159374 244.49063 62.659374 245.05313Q62.175 245.6 61.05 246.55313Q60.096874 247.35 59.815624 247.64688Q59.55 247.92813 59.378124 248.20938L63.596874 248.20938ZM65.05 244.99063Q65.05 243.45938 65.3625 242.5375Q65.675 241.6 66.28438 241.1Q66.90938 240.6 67.84688 240.6Q68.53438 240.6 69.05 240.88126Q69.58125 241.1625 69.925 241.69376Q70.26875 242.20938 70.45625 242.95938Q70.64375 243.70938 70.64375 244.99063Q70.64375 246.50626 70.33125 247.42813Q70.03438 248.35 69.40938 248.86563Q68.8 249.36563 67.84688 249.36563Q66.6125 249.36563 65.89375 248.475Q65.05 247.4125 65.05 244.99063ZM66.12813 244.99063Q66.12813 247.1 66.62813 247.80313Q67.12813 248.50626 67.84688 248.50626Q68.58125 248.50626 69.06563 247.80313Q69.56563 247.1 69.56563 244.99063Q69.56563 242.86563 69.06563 242.17813Q68.58125 241.475 67.83125 241.475Q67.1125 241.475 66.675 242.08438Q66.12813 242.86563 66.12813 244.99063Z" fill-rule="nonzero"/><path fill="#000000" d="M61.425 176.0L61.425 173.9375L57.70625 173.9375L57.70625 172.96875L61.628124 167.40625L62.4875 167.40625L62.4875 172.96875L63.64375 172.96875L63.64375 173.9375L62.4875 173.9375L62.4875 176.0L61.425 176.0ZM61.425 172.96875L61.425 169.10938L58.7375 172.96875L61.425 172.96875ZM65.05 171.76562Q65.05 170.23438 65.3625 169.3125Q65.675 168.375 66.28438 167.875Q66.90938 167.375 67.84688 167.375Q68.53438 167.375 69.05 167.65625Q69.58125 167.9375 69.925 168.46875Q70.26875 168.98438 70.45625 169.73438Q70.64375 170.48438 70.64375 171.76562Q70.64375 173.28125 70.33125 174.20312Q70.03438 175.125 69.40938 175.64062Q68.8 176.14062 67.84688 176.14062Q66.6125 176.14062 65.89375 175.25Q65.05 174.1875 65.05 171.76562ZM66.12813 171.76562Q66.12813 173.875 66.62813 174.57812Q67.12813 175.28125 67.84688 175.28125Q68.58125 175.28125 69.06563 174.57812Q69.56563 173.875 69.56563 171.76562Q69.56563 169.64062 69.06563 168.95312Q68.58125 168.25 67.83125 168.25Q67.1125 168.25 66.675 168.85938Q66.12813 169.64062 66.12813 171.76562Z" fill-rule="nonzero"/><path fill="#000000" d="M63.51875 96.29063L62.471874 96.36875Q62.33125 95.74375 62.08125 95.4625Q61.64375 95.00938 61.01875 95.00938Q60.51875 95.00938 60.128124 95.29063Q59.64375 95.66563 59.346874 96.36875Q59.065624 97.05625 59.05 98.3375Q59.425 97.75938 59.971874 97.47813Q60.534374 97.19688 61.14375 97.19688Q62.190624 97.19688 62.925 97.97813Q63.675 98.75938 63.675 99.97813Q63.675 100.79063 63.315624 101.49375Q62.971874 102.18125 62.3625 102.55625Q61.753124 102.91563 60.9875 102.91563Q59.659374 102.91563 58.83125 101.94688Q58.003124 100.97813 58.003124 98.75938Q58.003124 96.25938 58.925 95.13438Q59.721874 94.15 61.08125 94.15Q62.096874 94.15 62.7375 94.72813Q63.39375 95.29063 63.51875 96.29063ZM59.221874 99.99375Q59.221874 100.54063 59.440624 101.04063Q59.675 101.525 60.08125 101.79063Q60.503124 102.05625 60.971874 102.05625Q61.628124 102.05625 62.1125 101.525Q62.596874 100.97813 62.596874 100.05625Q62.596874 99.16563 62.1125 98.65Q61.64375 98.13438 60.925 98.13438Q60.20625 98.13438 59.70625 98.65Q59.221874 99.16563 59.221874 99.99375ZM65.05 98.54063Q65.05 97.00938 65.3625 96.0875Q65.675 95.15 66.28438 94.65Q66.90938 94.15 67.84688 94.15Q68.53438 94.15 69.05 94.43125Q69.58125 94.7125 69.925 95.24375Q70.26875 95.75938 70.45625 96.50938Q70.64375 97.25938 70.64375 98.54063Q70.64375 100.05625 70.33125 100.97813Q70.03438 101.9 69.40938 102.41563Q68.8 102.91563 67.84688 102.91563Q66.6125 102.91563 65.89375 102.025Q65.05 100.9625 65.05 98.54063ZM66.12813 98.54063Q66.12813 100.65 66.62813 101.35313Q67.12813 102.05625 67.84688 102.05625Q68.58125 102.05625 69.06563 101.35313Q69.56563 100.65 69.56563 98.54063Q69.56563 96.41563 69.06563 95.72813Q68.58125 95.025 67.83125 95.025Q67.1125 95.025 66.675 95.63438Q66.12813 96.41563 66.12813 98.54063Z" fill-rule="nonzero"/><path fill="#000000" d="M59.675 24.89375Q59.01875 24.64375 58.690624 24.20625Q58.378124 23.753124 58.378124 23.14375Q58.378124 22.20625 59.05 21.565624Q59.7375 20.925 60.846874 20.925Q61.971874 20.925 62.659374 21.58125Q63.346874 22.2375 63.346874 23.175Q63.346874 23.76875 63.034374 24.20625Q62.721874 24.64375 62.08125 24.89375Q62.878124 25.14375 63.284374 25.721874Q63.690624 26.3 63.690624 27.096874Q63.690624 28.190624 62.909374 28.940624Q62.14375 29.690624 60.8625 29.690624Q59.596874 29.690624 58.815624 28.940624Q58.034374 28.190624 58.034374 27.065624Q58.034374 26.221874 58.45625 25.659374Q58.89375 25.096874 59.675 24.89375ZM59.45625 23.096874Q59.45625 23.70625 59.846874 24.096874Q60.253124 24.4875 60.878124 24.4875Q61.4875 24.4875 61.878124 24.1125Q62.26875 23.721874 62.26875 23.159374Q62.26875 22.58125 61.8625 22.190624Q61.45625 21.784374 60.8625 21.784374Q60.253124 21.784374 59.846874 22.175Q59.45625 22.565624 59.45625 23.096874ZM59.128124 27.065624Q59.128124 27.51875 59.33125 27.940624Q59.55 28.3625 59.971874 28.596874Q60.39375 28.83125 60.878124 28.83125Q61.628124 28.83125 62.1125 28.346874Q62.6125 27.8625 62.6125 27.1125Q62.6125 26.346874 62.1125 25.846874Q61.6125 25.346874 60.846874 25.346874Q60.096874 25.346874 59.6125 25.846874Q59.128124 26.33125 59.128124 27.065624ZM65.05 25.315624Q65.05 23.784374 65.3625 22.8625Q65.675 21.925 66.28438 21.425Q66.90938 20.925 67.84688 20.925Q68.53438 20.925 69.05 21.20625Q69.58125 21.4875 69.925 22.01875Q70.26875 22.534374 70.45625 23.284374Q70.64375 24.034374 70.64375 25.315624Q70.64375 26.83125 70.33125 27.753124Q70.03438 28.675 69.40938 29.190624Q68.8 29.690624 67.84688 29.690624Q66.6125 29.690624 65.89375 28.8Q65.05 27.7375 65.05 25.315624ZM66.12813 25.315624Q66.12813 27.425 66.62813 28.128124Q67.12813 28.83125 67.84688 28.83125Q68.58125 28.83125 69.06563 28.128124Q69.56563 27.425 69.56563 25.315624Q69.56563 23.190624 69.06563 22.503124Q68.58125 21.8 67.83125 21.8Q67.1125 21.8 66.675 22.409374Q66.12813 23.190624 66.12813 25.315624Z" fill-rule="nonzero"/><path fill="#000000" d="M122.54804 335.45L122.54804 326.85626L125.51679 326.85626Q126.51679 326.85626 127.04804 326.98126Q127.78242 327.15314 128.29803 327.59064Q128.98553 328.16876 129.31366 329.075Q129.65741 329.96564 129.65741 331.10626Q129.65741 332.09064 129.42303 332.84064Q129.20428 333.59064 128.84491 334.09064Q128.48553 334.59064 128.04803 334.8719Q127.62617 335.15314 127.03242 335.3094Q126.43867 335.45 125.65742 335.45L122.54804 335.45ZM123.68867 334.4344L125.51679 334.4344Q126.37617 334.4344 126.86054 334.27814Q127.34492 334.1219 127.62617 333.825Q128.03241 333.4344 128.25116 332.7469Q128.48553 332.0594 128.48553 331.09064Q128.48553 329.7469 128.03241 329.02814Q127.59492 328.29376 126.96992 328.04376Q126.50117 327.8719 125.50117 327.8719L123.68867 327.8719L123.68867 334.4344ZM135.67303 333.45L136.76678 333.575Q136.51678 334.52814 135.81366 335.0594Q135.11053 335.59064 134.03241 335.59064Q132.67303 335.59064 131.86053 334.7469Q131.06366 333.90314 131.06366 332.3875Q131.06366 330.825 131.87616 329.96564Q132.68866 329.09064 133.96991 329.09064Q135.21991 329.09064 136.00116 329.9344Q136.79803 330.77814 136.79803 332.325Q136.79803 332.41876 136.79803 332.60626L132.15741 332.60626Q132.21991 333.6375 132.73553 334.1844Q133.25116 334.71564 134.03241 334.71564Q134.61053 334.71564 135.01678 334.41876Q135.43866 334.10626 135.67303 333.45ZM132.21991 331.7469L135.68866 331.7469Q135.62616 330.95 135.29803 330.5594Q134.78241 329.95 133.98553 329.95Q133.25116 329.95 132.75116 330.4344Q132.26678 330.91876 132.21991 331.7469ZM138.67303 335.45L138.67303 330.04376L137.73553 330.04376L137.73553 329.23126L138.67303 329.23126L138.67303 328.5594Q138.67303 327.9344 138.78241 327.6375Q138.93866 327.21564 139.31366 326.96564Q139.70428 326.71564 140.39178 326.71564Q140.84491 326.71564 141.37616 326.825L141.21991 327.73126Q140.89178 327.6844 140.59491 327.6844Q140.11053 327.6844 139.90741 327.8875Q139.71991 328.09064 139.71991 328.65314L139.71991 329.23126L140.93866 329.23126L140.93866 330.04376L139.71991 330.04376L139.71991 335.45L138.67303 335.45ZM145.48553 334.6844Q144.89178 335.1844 144.34491 335.3875Q143.81366 335.59064 143.18866 335.59064Q142.15741 335.59064 141.61053 335.09064Q141.06366 334.59064 141.06366 333.8094Q141.06366 333.35626 141.26678 332.98126Q141.46991 332.59064 141.81366 332.3719Q142.15741 332.1375 142.57928 332.02814Q142.87616 331.9344 143.51678 331.85626Q144.78241 331.71564 145.39178 331.4969Q145.39178 331.27814 145.39178 331.23126Q145.39178 330.575 145.09491 330.3094Q144.68866 329.96564 143.89178 329.96564Q143.15741 329.96564 142.79803 330.23126Q142.43866 330.48126 142.26678 331.1375L141.23553 330.9969Q141.37616 330.34064 141.70428 329.9344Q142.03241 329.52814 142.64178 329.3094Q143.25116 329.09064 144.04803 329.09064Q144.84491 329.09064 145.34491 329.27814Q145.84491 329.46564 146.07928 329.7469Q146.31366 330.02814 146.40741 330.46564Q146.45428 330.73126 146.45428 331.4344L146.45428 332.84064Q146.45428 334.3094 146.51678 334.7Q146.59491 335.09064 146.79803 335.45L145.68866 335.45Q145.53241 335.1219 145.48553 334.6844ZM145.39178 332.325Q144.81366 332.5594 143.67303 332.73126Q143.01678 332.825 142.75116 332.95Q142.48553 333.0594 142.32928 333.27814Q142.18866 333.4969 142.18866 333.77814Q142.18866 334.2 142.50116 334.48126Q142.82928 334.7625 143.43866 334.7625Q144.04803 334.7625 144.51678 334.4969Q145.00116 334.23126 145.21991 333.7625Q145.39178 333.40314 145.39178 332.71564L145.39178 332.325ZM152.50116 335.45L152.50116 334.52814Q151.76678 335.59064 150.51678 335.59064Q149.96991 335.59064 149.48553 335.3875Q149.01678 335.16876 148.78241 334.85626Q148.54803 334.52814 148.45428 334.0594Q148.39178 333.7625 148.39178 333.075L148.39178 329.23126L149.45428 329.23126L149.45428 332.6844Q149.45428 333.4969 149.51678 333.79376Q149.61053 334.2 149.92303 334.45Q150.25116 334.6844 150.73553 334.6844Q151.20428 334.6844 151.61053 334.45Q152.03241 334.2 152.20428 333.77814Q152.39178 333.35626 152.39178 332.5594L152.39178 329.23126L153.43866 329.23126L153.43866 335.45L152.50116 335.45ZM155.39178 335.45L155.39178 326.85626L156.45428 326.85626L156.45428 335.45L155.39178 335.45ZM160.71991 334.5125L160.87616 335.4344Q160.42303 335.52814 160.07928 335.52814Q159.50116 335.52814 159.18866 335.35626Q158.87616 335.16876 158.73553 334.8719Q158.61053 334.575 158.61053 333.6219L158.61053 330.04376L157.84491 330.04376L157.84491 329.23126L158.61053 329.23126L158.61053 327.6844L159.65741 327.0594L159.65741 329.23126L160.71991 329.23126L160.71991 330.04376L159.65741 330.04376L159.65741 333.6844Q159.65741 334.1375 159.70428 334.2625Q159.76678 334.3875 159.89178 334.46564Q160.01678 334.54376 160.25116 334.54376Q160.43866 334.54376 160.71991 334.5125Z" fill-rule="nonzero"/><path fill="#000000" d="M227.8912 331.2625Q227.8912 329.1219 229.03183 327.91876Q230.18808 326.7 232.00058 326.7Q233.2037 326.7 234.15683 327.27814Q235.10995 327.84064 235.60995 328.85626Q236.10995 329.8719 236.10995 331.16876Q236.10995 332.46564 235.5787 333.4969Q235.04745 334.52814 234.0787 335.0594Q233.12558 335.59064 232.00058 335.59064Q230.78183 335.59064 229.8287 335.0125Q228.87558 334.41876 228.37558 333.41876Q227.8912 332.40314 227.8912 331.2625ZM229.06308 331.27814Q229.06308 332.84064 229.8912 333.73126Q230.73495 334.6219 232.00058 334.6219Q233.28183 334.6219 234.10995 333.73126Q234.93808 332.825 234.93808 331.15314Q234.93808 330.10626 234.5787 329.325Q234.23495 328.54376 233.54745 328.1219Q232.85995 327.6844 232.0162 327.6844Q230.81308 327.6844 229.93808 328.5125Q229.06308 329.34064 229.06308 331.27814ZM236.68808 333.59064L237.71933 333.4344Q237.81308 334.0594 238.2037 334.3875Q238.60995 334.71564 239.34433 334.71564Q240.06308 334.71564 240.40683 334.4344Q240.7662 334.1375 240.7662 333.73126Q240.7662 333.3719 240.4537 333.16876Q240.23495 333.02814 239.37558 332.8094Q238.21933 332.5125 237.7662 332.3094Q237.3287 332.09064 237.09433 331.71564Q236.85995 331.34064 236.85995 330.8719Q236.85995 330.46564 237.04745 330.10626Q237.23495 329.7469 237.56308 329.5125Q237.81308 329.34064 238.23495 329.21564Q238.65683 329.09064 239.15683 329.09064Q239.87558 329.09064 240.42245 329.3094Q240.98495 329.5125 241.25058 329.8719Q241.5162 330.23126 241.60995 330.825L240.5787 330.96564Q240.5162 330.4969 240.17245 330.23126Q239.84433 329.95 239.21933 329.95Q238.50058 329.95 238.18808 330.2Q237.87558 330.4344 237.87558 330.7625Q237.87558 330.96564 238.00058 331.1219Q238.1412 331.29376 238.40683 331.40314Q238.56308 331.46564 239.34433 331.66876Q240.46933 331.98126 240.90683 332.16876Q241.34433 332.35626 241.59433 332.71564Q241.84433 333.075 241.84433 333.6219Q241.84433 334.15314 241.53183 334.6219Q241.23495 335.075 240.65683 335.34064Q240.0787 335.59064 239.34433 335.59064Q238.12558 335.59064 237.48495 335.09064Q236.85995 334.575 236.68808 333.59064Z" fill-rule="nonzero"/><path fill="#000000" d="M293.07812 331.2625Q293.07812 329.1219 294.21875 327.91876Q295.375 326.7 297.1875 326.7Q298.39062 326.7 299.34375 327.27814Q300.29688 327.84064 300.79688 328.85626Q301.29688 329.8719 301.29688 331.16876Q301.29688 332.46564 300.76562 333.4969Q300.23438 334.52814 299.26562 335.0594Q298.3125 335.59064 297.1875 335.59064Q295.96875 335.59064 295.01562 335.0125Q294.0625 334.41876 293.5625 333.41876Q293.07812 332.40314 293.07812 331.2625ZM294.25 331.27814Q294.25 332.84064 295.07812 333.73126Q295.92188 334.6219 297.1875 334.6219Q298.46875 334.6219 299.29688 333.73126Q300.125 332.825 300.125 331.15314Q300.125 330.10626 299.76562 329.325Q299.42188 328.54376 298.73438 328.1219Q298.04688 327.6844 297.20312 327.6844Q296.0 327.6844 295.125 328.5125Q294.25 329.34064 294.25 331.27814ZM301.875 333.59064L302.90625 333.4344Q303.0 334.0594 303.39062 334.3875Q303.79688 334.71564 304.53125 334.71564Q305.25 334.71564 305.59375 334.4344Q305.95312 334.1375 305.95312 333.73126Q305.95312 333.3719 305.64062 333.16876Q305.42188 333.02814 304.5625 332.8094Q303.40625 332.5125 302.95312 332.3094Q302.51562 332.09064 302.28125 331.71564Q302.04688 331.34064 302.04688 330.8719Q302.04688 330.46564 302.23438 330.10626Q302.42188 329.7469 302.75 329.5125Q303.0 329.34064 303.42188 329.21564Q303.84375 329.09064 304.34375 329.09064Q305.0625 329.09064 305.60938 329.3094Q306.17188 329.5125 306.4375 329.8719Q306.70312 330.23126 306.79688 330.825L305.76562 330.96564Q305.70312 330.4969 305.35938 330.23126Q305.03125 329.95 304.40625 329.95Q303.6875 329.95 303.375 330.2Q303.0625 330.4344 303.0625 330.7625Q303.0625 330.96564 303.1875 331.1219Q303.32812 331.29376 303.59375 331.40314Q303.75 331.46564 304.53125 331.66876Q305.65625 331.98126 306.09375 332.16876Q306.53125 332.35626 306.78125 332.71564Q307.03125 333.075 307.03125 333.6219Q307.03125 334.15314 306.71875 334.6219Q306.42188 335.075 305.84375 335.34064Q305.26562 335.59064 304.53125 335.59064Q303.3125 335.59064 302.67188 335.09064Q302.04688 334.575 301.875 333.59064ZM314.5 334.0594L314.5 331.7L312.17188 331.7L312.17188 330.71564L314.5 330.71564L314.5 328.3875L315.5 328.3875L315.5 330.71564L317.84375 330.71564L317.84375 331.7L315.5 331.7L315.5 334.0594L314.5 334.0594ZM321.875 333.59064L322.90625 333.4344Q323.0 334.0594 323.39062 334.3875Q323.79688 334.71564 324.53125 334.71564Q325.25 334.71564 325.59375 334.4344Q325.95312 334.1375 325.95312 333.73126Q325.95312 333.3719 325.64062 333.16876Q325.42188 333.02814 324.5625 332.8094Q323.40625 332.5125 322.95312 332.3094Q322.51562 332.09064 322.28125 331.71564Q322.04688 331.34064 322.04688 330.8719Q322.04688 330.46564 322.23438 330.10626Q322.42188 329.7469 322.75 329.5125Q323.0 329.34064 323.42188 329.21564Q323.84375 329.09064 324.34375 329.09064Q325.0625 329.09064 325.60938 329.3094Q326.17188 329.5125 326.4375 329.8719Q326.70312 330.23126 326.79688 330.825L325.76562 330.96564Q325.70312 330.4969 325.35938 330.23126Q325.03125 329.95 324.40625 329.95Q323.6875 329.95 323.375 330.2Q323.0625 330.4344 323.0625 330.7625Q323.0625 330.96564 323.1875 331.1219Q323.32812 331.29376 323.59375 331.40314Q323.75 331.46564 324.53125 331.66876Q325.65625 331.98126 326.09375 332.16876Q326.53125 332.35626 326.78125 332.71564Q327.03125 333.075 327.03125 333.6219Q327.03125 334.15314 326.71875 334.6219Q326.42188 335.075 325.84375 335.34064Q325.26562 335.59064 324.53125 335.59064Q323.3125 335.59064 322.67188 335.09064Q322.04688 334.575 321.875 333.59064ZM331.59375 334.5125L331.75 335.4344Q331.29688 335.52814 330.95312 335.52814Q330.375 335.52814 330.0625 335.35626Q329.75 335.16876 329.60938 334.8719Q329.48438 334.575 329.48438 333.6219L329.48438 330.04376L328.71875 330.04376L328.71875 329.23126L329.48438 329.23126L329.48438 327.6844L330.53125 327.0594L330.53125 329.23126L331.59375 329.23126L331.59375 330.04376L330.53125 330.04376L330.53125 333.6844Q330.53125 334.1375 330.57812 334.2625Q330.64062 334.3875 330.76562 334.46564Q330.89062 334.54376 331.125 334.54376Q331.3125 334.54376 331.59375 334.5125ZM332.28125 335.45L332.28125 329.23126L333.23438 329.23126L333.23438 330.16876Q333.59375 329.5125 333.89062 329.3094Q334.20312 329.09064 334.57812 329.09064Q335.10938 329.09064 335.65625 329.41876L335.29688 330.40314Q334.90625 330.16876 334.53125 330.16876Q334.17188 330.16876 333.89062 330.3875Q333.625 330.59064 333.51562 330.96564Q333.32812 331.52814 333.32812 332.1844L333.32812 335.45L332.28125 335.45ZM336.29688 328.075L336.29688 326.85626L337.35938 326.85626L337.35938 328.075L336.29688 328.075ZM336.29688 335.45L336.29688 329.23126L337.35938 329.23126L337.35938 335.45L336.29688 335.45ZM339.29688 337.84064L339.29688 329.23126L340.25 329.23126L340.25 330.02814Q340.59375 329.5594 341.01562 329.325Q341.45312 329.09064 342.0625 329.09064Q342.85938 329.09064 343.46875 329.4969Q344.07812 329.90314 344.375 330.65314Q344.6875 331.40314 344.6875 332.29376Q344.6875 333.2469 344.34375 334.0125Q344.01562 334.77814 343.35938 335.1844Q342.70312 335.59064 341.98438 335.59064Q341.45312 335.59064 341.03125 335.3719Q340.60938 335.1375 340.34375 334.8094L340.34375 337.84064L339.29688 337.84064ZM340.25 332.3719Q340.25 333.575 340.73438 334.15314Q341.21875 334.71564 341.90625 334.71564Q342.60938 334.71564 343.10938 334.1219Q343.60938 333.52814 343.60938 332.27814Q343.60938 331.09064 343.125 330.5125Q342.64062 329.91876 341.95312 329.91876Q341.28125 329.91876 340.76562 330.54376Q340.25 331.16876 340.25 332.3719ZM346.29688 337.84064L346.29688 329.23126L347.25 329.23126L347.25 330.02814Q347.59375 329.5594 348.01562 329.325Q348.45312 329.09064 349.0625 329.09064Q349.85938 329.09064 350.46875 329.4969Q351.07812 329.90314 351.375 330.65314Q351.6875 331.40314 351.6875 332.29376Q351.6875 333.2469 351.34375 334.0125Q351.01562 334.77814 350.35938 335.1844Q349.70312 335.59064 348.98438 335.59064Q348.45312 335.59064 348.03125 335.3719Q347.60938 335.1375 347.34375 334.8094L347.34375 337.84064L346.29688 337.84064ZM347.25 332.3719Q347.25 333.575 347.73438 334.15314Q348.21875 334.71564 348.90625 334.71564Q349.60938 334.71564 350.10938 334.1219Q350.60938 333.52814 350.60938 332.27814Q350.60938 331.09064 350.125 330.5125Q349.64062 329.91876 348.95312 329.91876Q348.28125 329.91876 347.76562 330.54376Q347.25 331.16876 347.25 332.3719ZM357.54688 333.45L358.64062 333.575Q358.39062 334.52814 357.6875 335.0594Q356.98438 335.59064 355.90625 335.59064Q354.54688 335.59064 353.73438 334.7469Q352.9375 333.90314 352.9375 332.3875Q352.9375 330.825 353.75 329.96564Q354.5625 329.09064 355.84375 329.09064Q357.09375 329.09064 357.875 329.9344Q358.67188 330.77814 358.67188 332.325Q358.67188 332.41876 358.67188 332.60626L354.03125 332.60626Q354.09375 333.6375 354.60938 334.1844Q355.125 334.71564 355.90625 334.71564Q356.48438 334.71564 356.89062 334.41876Q357.3125 334.10626 357.54688 333.45ZM354.09375 331.7469L357.5625 331.7469Q357.5 330.95 357.17188 330.5594Q356.65625 329.95 355.85938 329.95Q355.125 329.95 354.625 330.4344Q354.14062 330.91876 354.09375 331.7469ZM364.32812 335.45L364.32812 334.66876Q363.73438 335.59064 362.59375 335.59064Q361.84375 335.59064 361.21875 335.1844Q360.59375 334.7625 360.25 334.02814Q359.90625 333.29376 359.90625 332.34064Q359.90625 331.41876 360.21875 330.65314Q360.53125 329.8875 361.15625 329.4969Q361.78125 329.09064 362.54688 329.09064Q363.10938 329.09064 363.54688 329.325Q363.98438 329.5594 364.26562 329.9344L364.26562 326.85626L365.3125 326.85626L365.3125 335.45L364.32812 335.45ZM361.0 332.34064Q361.0 333.54376 361.5 334.1375Q362.0 334.71564 362.6875 334.71564Q363.375 334.71564 363.85938 334.15314Q364.34375 333.59064 364.34375 332.4344Q364.34375 331.15314 363.84375 330.5594Q363.35938 329.96564 362.64062 329.96564Q361.9375 329.96564 361.46875 330.54376Q361.0 331.10626 361.0 332.34064Z" fill-rule="nonzero"/><path fill="#000000" d="M382.26505 331.2625Q382.26505 329.1219 383.40567 327.91876Q384.56192 326.7 386.37442 326.7Q387.57755 326.7 388.53067 327.27814Q389.4838 327.84064 389.9838 328.85626Q390.4838 329.8719 390.4838 331.16876Q390.4838 332.46564 389.95255 333.4969Q389.4213 334.52814 388.45255 335.0594Q387.49942 335.59064 386.37442 335.59064Q385.15567 335.59064 384.20255 335.0125Q383.24942 334.41876 382.74942 333.41876Q382.26505 332.40314 382.26505 331.2625ZM383.43692 331.27814Q383.43692 332.84064 384.26505 333.73126Q385.1088 334.6219 386.37442 334.6219Q387.65567 334.6219 388.4838 333.73126Q389.31192 332.825 389.31192 331.15314Q389.31192 330.10626 388.95255 329.325Q388.6088 328.54376 387.9213 328.1219Q387.2338 327.6844 386.39005 327.6844Q385.18692 327.6844 384.31192 328.5125Q383.43692 329.34064 383.43692 331.27814ZM391.06192 333.59064L392.09317 333.4344Q392.18692 334.0594 392.57755 334.3875Q392.9838 334.71564 393.71817 334.71564Q394.43692 334.71564 394.78067 334.4344Q395.14005 334.1375 395.14005 333.73126Q395.14005 333.3719 394.82755 333.16876Q394.6088 333.02814 393.74942 332.8094Q392.59317 332.5125 392.14005 332.3094Q391.70255 332.09064 391.46817 331.71564Q391.2338 331.34064 391.2338 330.8719Q391.2338 330.46564 391.4213 330.10626Q391.6088 329.7469 391.93692 329.5125Q392.18692 329.34064 392.6088 329.21564Q393.03067 329.09064 393.53067 329.09064Q394.24942 329.09064 394.7963 329.3094Q395.3588 329.5125 395.62442 329.8719Q395.89005 330.23126 395.9838 330.825L394.95255 330.96564Q394.89005 330.4969 394.5463 330.23126Q394.21817 329.95 393.59317 329.95Q392.87442 329.95 392.56192 330.2Q392.24942 330.4344 392.24942 330.7625Q392.24942 330.96564 392.37442 331.1219Q392.51505 331.29376 392.78067 331.40314Q392.93692 331.46564 393.71817 331.66876Q394.84317 331.98126 395.28067 332.16876Q395.71817 332.35626 395.96817 332.71564Q396.21817 333.075 396.21817 333.6219Q396.21817 334.15314 395.90567 334.6219Q395.6088 335.075 395.03067 335.34064Q394.45255 335.59064 393.71817 335.59064Q392.49942 335.59064 391.8588 335.09064Q391.2338 334.575 391.06192 333.59064ZM403.68692 334.0594L403.68692 331.7L401.3588 331.7L401.3588 330.71564L403.68692 330.71564L403.68692 328.3875L404.68692 328.3875L404.68692 330.71564L407.03067 330.71564L407.03067 331.7L404.68692 331.7L404.68692 334.0594L403.68692 334.0594ZM411.06192 333.59064L412.09317 333.4344Q412.18692 334.0594 412.57755 334.3875Q412.9838 334.71564 413.71817 334.71564Q414.43692 334.71564 414.78067 334.4344Q415.14005 334.1375 415.14005 333.73126Q415.14005 333.3719 414.82755 333.16876Q414.6088 333.02814 413.74942 332.8094Q412.59317 332.5125 412.14005 332.3094Q411.70255 332.09064 411.46817 331.71564Q411.2338 331.34064 411.2338 330.8719Q411.2338 330.46564 411.4213 330.10626Q411.6088 329.7469 411.93692 329.5125Q412.18692 329.34064 412.6088 329.21564Q413.03067 329.09064 413.53067 329.09064Q414.24942 329.09064 414.7963 329.3094Q415.3588 329.5125 415.62442 329.8719Q415.89005 330.23126 415.9838 330.825L414.95255 330.96564Q414.89005 330.4969 414.5463 330.23126Q414.21817 329.95 413.59317 329.95Q412.87442 329.95 412.56192 330.2Q412.24942 330.4344 412.24942 330.7625Q412.24942 330.96564 412.37442 331.1219Q412.51505 331.29376 412.78067 331.40314Q412.93692 331.46564 413.71817 331.66876Q414.84317 331.98126 415.28067 332.16876Q415.71817 332.35626 415.96817 332.71564Q416.21817 333.075 416.21817 333.6219Q416.21817 334.15314 415.90567 334.6219Q415.6088 335.075 415.03067 335.34064Q414.45255 335.59064 413.71817 335.59064Q412.49942 335.59064 411.8588 335.09064Q411.2338 334.575 411.06192 333.59064ZM420.78067 334.5125L420.93692 335.4344Q420.4838 335.52814 420.14005 335.52814Q419.56192 335.52814 419.24942 335.35626Q418.93692 335.16876 418.7963 334.8719Q418.6713 334.575 418.6713 333.6219L418.6713 330.04376L417.90567 330.04376L417.90567 329.23126L418.6713 329.23126L418.6713 327.6844L419.71817 327.0594L419.71817 329.23126L420.78067 329.23126L420.78067 330.04376L419.71817 330.04376L419.71817 333.6844Q419.71817 334.1375 419.76505 334.2625Q419.82755 334.3875 419.95255 334.46564Q420.07755 334.54376 420.31192 334.54376Q420.49942 334.54376 420.78067 334.5125ZM421.46817 335.45L421.46817 329.23126L422.4213 329.23126L422.4213 330.16876Q422.78067 329.5125 423.07755 329.3094Q423.39005 329.09064 423.76505 329.09064Q424.2963 329.09064 424.84317 329.41876L424.4838 330.40314Q424.09317 330.16876 423.71817 330.16876Q423.3588 330.16876 423.07755 330.3875Q422.81192 330.59064 422.70255 330.96564Q422.51505 331.52814 422.51505 332.1844L422.51505 335.45L421.46817 335.45ZM425.4838 328.075L425.4838 326.85626L426.5463 326.85626L426.5463 328.075L425.4838 328.075ZM425.4838 335.45L425.4838 329.23126L426.5463 329.23126L426.5463 335.45L425.4838 335.45ZM428.4838 337.84064L428.4838 329.23126L429.43692 329.23126L429.43692 330.02814Q429.78067 329.5594 430.20255 329.325Q430.64005 329.09064 431.24942 329.09064Q432.0463 329.09064 432.65567 329.4969Q433.26505 329.90314 433.56192 330.65314Q433.87442 331.40314 433.87442 332.29376Q433.87442 333.2469 433.53067 334.0125Q433.20255 334.77814 432.5463 335.1844Q431.89005 335.59064 431.1713 335.59064Q430.64005 335.59064 430.21817 335.3719Q429.7963 335.1375 429.53067 334.8094L429.53067 337.84064L428.4838 337.84064ZM429.43692 332.3719Q429.43692 333.575 429.9213 334.15314Q430.40567 334.71564 431.09317 334.71564Q431.7963 334.71564 432.2963 334.1219Q432.7963 333.52814 432.7963 332.27814Q432.7963 331.09064 432.31192 330.5125Q431.82755 329.91876 431.14005 329.91876Q430.46817 329.91876 429.95255 330.54376Q429.43692 331.16876 429.43692 332.3719ZM435.4838 337.84064L435.4838 329.23126L436.43692 329.23126L436.43692 330.02814Q436.78067 329.5594 437.20255 329.325Q437.64005 329.09064 438.24942 329.09064Q439.0463 329.09064 439.65567 329.4969Q440.26505 329.90314 440.56192 330.65314Q440.87442 331.40314 440.87442 332.29376Q440.87442 333.2469 440.53067 334.0125Q440.20255 334.77814 439.5463 335.1844Q438.89005 335.59064 438.1713 335.59064Q437.64005 335.59064 437.21817 335.3719Q436.7963 335.1375 436.53067 334.8094L436.53067 337.84064L435.4838 337.84064ZM436.43692 332.3719Q436.43692 333.575 436.9213 334.15314Q437.40567 334.71564 438.09317 334.71564Q438.7963 334.71564 439.2963 334.1219Q439.7963 333.52814 439.7963 332.27814Q439.7963 331.09064 439.31192 330.5125Q438.82755 329.91876 438.14005 329.91876Q437.46817 329.91876 436.95255 330.54376Q436.43692 331.16876 436.43692 332.3719ZM446.7338 333.45L447.82755 333.575Q447.57755 334.52814 446.87442 335.0594Q446.1713 335.59064 445.09317 335.59064Q443.7338 335.59064 442.9213 334.7469Q442.12442 333.90314 442.12442 332.3875Q442.12442 330.825 442.93692 329.96564Q443.74942 329.09064 445.03067 329.09064Q446.28067 329.09064 447.06192 329.9344Q447.8588 330.77814 447.8588 332.325Q447.8588 332.41876 447.8588 332.60626L443.21817 332.60626Q443.28067 333.6375 443.7963 334.1844Q444.31192 334.71564 445.09317 334.71564Q445.6713 334.71564 446.07755 334.41876Q446.49942 334.10626 446.7338 333.45ZM443.28067 331.7469L446.74942 331.7469Q446.68692 330.95 446.3588 330.5594Q445.84317 329.95 445.0463 329.95Q444.31192 329.95 443.81192 330.4344Q443.32755 330.91876 443.28067 331.7469ZM453.51505 335.45L453.51505 334.66876Q452.9213 335.59064 451.78067 335.59064Q451.03067 335.59064 450.40567 335.1844Q449.78067 334.7625 449.43692 334.02814Q449.09317 333.29376 449.09317 332.34064Q449.09317 331.41876 449.40567 330.65314Q449.71817 329.8875 450.34317 329.4969Q450.96817 329.09064 451.7338 329.09064Q452.2963 329.09064 452.7338 329.325Q453.1713 329.5594 453.45255 329.9344L453.45255 326.85626L454.49942 326.85626L454.49942 335.45L453.51505 335.45ZM450.18692 332.34064Q450.18692 333.54376 450.68692 334.1375Q451.18692 334.71564 451.87442 334.71564Q452.56192 334.71564 453.0463 334.15314Q453.53067 333.59064 453.53067 332.4344Q453.53067 331.15314 453.03067 330.5594Q452.5463 329.96564 451.82755 329.96564Q451.12442 329.96564 450.65567 330.54376Q450.18692 331.10626 450.18692 332.34064ZM461.68692 334.0594L461.68692 331.7L459.3588 331.7L459.3588 330.71564L461.68692 330.71564L461.68692 328.3875L462.68692 328.3875L462.68692 330.71564L465.03067 330.71564L465.03067 331.7L462.68692 331.7L462.68692 334.0594L461.68692 334.0594Z" fill-rule="nonzero"/><path fill="#000000" d="M413.06192 349.45L413.06192 340.85626L414.20255 340.85626L414.20255 348.4344L418.43692 348.4344L418.43692 349.45L413.06192 349.45ZM422.2963 349.45L422.2963 341.8719L419.46817 341.8719L419.46817 340.85626L426.28067 340.85626L426.28067 341.8719L423.43692 341.8719L423.43692 349.45L422.2963 349.45ZM426.76505 345.2625Q426.76505 343.1219 427.90567 341.91876Q429.06192 340.7 430.87442 340.7Q432.07755 340.7 433.03067 341.27814Q433.9838 341.84064 434.4838 342.85626Q434.9838 343.8719 434.9838 345.16876Q434.9838 346.46564 434.45255 347.4969Q433.9213 348.52814 432.95255 349.0594Q431.99942 349.59064 430.87442 349.59064Q429.65567 349.59064 428.70255 349.0125Q427.74942 348.41876 427.24942 347.41876Q426.76505 346.40314 426.76505 345.2625ZM427.93692 345.27814Q427.93692 346.84064 428.76505 347.73126Q429.6088 348.6219 430.87442 348.6219Q432.15567 348.6219 432.9838 347.73126Q433.81192 346.825 433.81192 345.15314Q433.81192 344.10626 433.45255 343.325Q433.1088 342.54376 432.4213 342.1219Q431.7338 341.6844 430.89005 341.6844Q429.68692 341.6844 428.81192 342.5125Q427.93692 343.34064 427.93692 345.27814Z" fill-rule="nonzero"/><path fill="#000000" d="M476.45197 331.2625Q476.45197 329.1219 477.5926 327.91876Q478.74884 326.7 480.56134 326.7Q481.76447 326.7 482.7176 327.27814Q483.67072 327.84064 484.17072 328.85626Q484.67072 329.8719 484.67072 331.16876Q484.67072 332.46564 484.13947 333.4969Q483.60822 334.52814 482.63947 335.0594Q481.68634 335.59064 480.56134 335.59064Q479.3426 335.59064 478.38947 335.0125Q477.43634 334.41876 476.93634 333.41876Q476.45197 332.40314 476.45197 331.2625ZM477.62384 331.27814Q477.62384 332.84064 478.45197 333.73126Q479.29572 334.6219 480.56134 334.6219Q481.8426 334.6219 482.67072 333.73126Q483.49884 332.825 483.49884 331.15314Q483.49884 330.10626 483.13947 329.325Q482.79572 328.54376 482.10822 328.1219Q481.42072 327.6844 480.57697 327.6844Q479.37384 327.6844 478.49884 328.5125Q477.62384 329.34064 477.62384 331.27814ZM485.24884 333.59064L486.2801 333.4344Q486.37384 334.0594 486.76447 334.3875Q487.17072 334.71564 487.9051 334.71564Q488.62384 334.71564 488.9676 334.4344Q489.32697 334.1375 489.32697 333.73126Q489.32697 333.3719 489.01447 333.16876Q488.79572 333.02814 487.93634 332.8094Q486.7801 332.5125 486.32697 332.3094Q485.88947 332.09064 485.6551 331.71564Q485.42072 331.34064 485.42072 330.8719Q485.42072 330.46564 485.60822 330.10626Q485.79572 329.7469 486.12384 329.5125Q486.37384 329.34064 486.79572 329.21564Q487.2176 329.09064 487.7176 329.09064Q488.43634 329.09064 488.98322 329.3094Q489.54572 329.5125 489.81134 329.8719Q490.07697 330.23126 490.17072 330.825L489.13947 330.96564Q489.07697 330.4969 488.73322 330.23126Q488.4051 329.95 487.7801 329.95Q487.06134 329.95 486.74884 330.2Q486.43634 330.4344 486.43634 330.7625Q486.43634 330.96564 486.56134 331.1219Q486.70197 331.29376 486.9676 331.40314Q487.12384 331.46564 487.9051 331.66876Q489.0301 331.98126 489.4676 332.16876Q489.9051 332.35626 490.1551 332.71564Q490.4051 333.075 490.4051 333.6219Q490.4051 334.15314 490.0926 334.6219Q489.79572 335.075 489.2176 335.34064Q488.63947 335.59064 487.9051 335.59064Q486.68634 335.59064 486.04572 335.09064Q485.42072 334.575 485.24884 333.59064ZM497.87384 334.0594L497.87384 331.7L495.54572 331.7L495.54572 330.71564L497.87384 330.71564L497.87384 328.3875L498.87384 328.3875L498.87384 330.71564L501.2176 330.71564L501.2176 331.7L498.87384 331.7L498.87384 334.0594L497.87384 334.0594ZM505.24884 333.59064L506.2801 333.4344Q506.37384 334.0594 506.76447 334.3875Q507.17072 334.71564 507.9051 334.71564Q508.62384 334.71564 508.9676 334.4344Q509.32697 334.1375 509.32697 333.73126Q509.32697 333.3719 509.01447 333.16876Q508.79572 333.02814 507.93634 332.8094Q506.7801 332.5125 506.32697 332.3094Q505.88947 332.09064 505.6551 331.71564Q505.42072 331.34064 505.42072 330.8719Q505.42072 330.46564 505.60822 330.10626Q505.79572 329.7469 506.12384 329.5125Q506.37384 329.34064 506.79572 329.21564Q507.2176 329.09064 507.7176 329.09064Q508.43634 329.09064 508.98322 329.3094Q509.54572 329.5125 509.81134 329.8719Q510.07697 330.23126 510.17072 330.825L509.13947 330.96564Q509.07697 330.4969 508.73322 330.23126Q508.4051 329.95 507.7801 329.95Q507.06134 329.95 506.74884 330.2Q506.43634 330.4344 506.43634 330.7625Q506.43634 330.96564 506.56134 331.1219Q506.70197 331.29376 506.9676 331.40314Q507.12384 331.46564 507.9051 331.66876Q509.0301 331.98126 509.4676 332.16876Q509.9051 332.35626 510.1551 332.71564Q510.4051 333.075 510.4051 333.6219Q510.4051 334.15314 510.0926 334.6219Q509.79572 335.075 509.2176 335.34064Q508.63947 335.59064 507.9051 335.59064Q506.68634 335.59064 506.04572 335.09064Q505.42072 334.575 505.24884 333.59064ZM514.9676 334.5125L515.12384 335.4344Q514.6707 335.52814 514.32697 335.52814Q513.74884 335.52814 513.43634 335.35626Q513.12384 335.16876 512.9832 334.8719Q512.8582 334.575 512.8582 333.6219L512.8582 330.04376L512.0926 330.04376L512.0926 329.23126L512.8582 329.23126L512.8582 327.6844L513.9051 327.0594L513.9051 329.23126L514.9676 329.23126L514.9676 330.04376L513.9051 330.04376L513.9051 333.6844Q513.9051 334.1375 513.95197 334.2625Q514.01447 334.3875 514.13947 334.46564Q514.26447 334.54376 514.49884 334.54376Q514.68634 334.54376 514.9676 334.5125ZM515.6551 335.45L515.6551 329.23126L516.6082 329.23126L516.6082 330.16876Q516.9676 329.5125 517.26447 329.3094Q517.57697 329.09064 517.95197 329.09064Q518.4832 329.09064 519.0301 329.41876L518.6707 330.40314Q518.2801 330.16876 517.9051 330.16876Q517.5457 330.16876 517.26447 330.3875Q516.99884 330.59064 516.88947 330.96564Q516.70197 331.52814 516.70197 332.1844L516.70197 335.45L515.6551 335.45ZM519.6707 328.075L519.6707 326.85626L520.7332 326.85626L520.7332 328.075L519.6707 328.075ZM519.6707 335.45L519.6707 329.23126L520.7332 329.23126L520.7332 335.45L519.6707 335.45ZM522.6707 337.84064L522.6707 329.23126L523.62384 329.23126L523.62384 330.02814Q523.9676 329.5594 524.38947 329.325Q524.82697 329.09064 525.43634 329.09064Q526.2332 329.09064 526.8426 329.4969Q527.45197 329.90314 527.74884 330.65314Q528.06134 331.40314 528.06134 332.29376Q528.06134 333.2469 527.7176 334.0125Q527.38947 334.77814 526.7332 335.1844Q526.07697 335.59064 525.3582 335.59064Q524.82697 335.59064 524.4051 335.3719Q523.9832 335.1375 523.7176 334.8094L523.7176 337.84064L522.6707 337.84064ZM523.62384 332.3719Q523.62384 333.575 524.1082 334.15314Q524.5926 334.71564 525.2801 334.71564Q525.9832 334.71564 526.4832 334.1219Q526.9832 333.52814 526.9832 332.27814Q526.9832 331.09064 526.49884 330.5125Q526.01447 329.91876 525.32697 329.91876Q524.6551 329.91876 524.13947 330.54376Q523.62384 331.16876 523.62384 332.3719ZM529.6707 337.84064L529.6707 329.23126L530.62384 329.23126L530.62384 330.02814Q530.9676 329.5594 531.38947 329.325Q531.82697 329.09064 532.43634 329.09064Q533.2332 329.09064 533.8426 329.4969Q534.45197 329.90314 534.74884 330.65314Q535.06134 331.40314 535.06134 332.29376Q535.06134 333.2469 534.7176 334.0125Q534.38947 334.77814 533.7332 335.1844Q533.07697 335.59064 532.3582 335.59064Q531.82697 335.59064 531.4051 335.3719Q530.9832 335.1375 530.7176 334.8094L530.7176 337.84064L529.6707 337.84064ZM530.62384 332.3719Q530.62384 333.575 531.1082 334.15314Q531.5926 334.71564 532.2801 334.71564Q532.9832 334.71564 533.4832 334.1219Q533.9832 333.52814 533.9832 332.27814Q533.9832 331.09064 533.49884 330.5125Q533.01447 329.91876 532.32697 329.91876Q531.6551 329.91876 531.13947 330.54376Q530.62384 331.16876 530.62384 332.3719ZM540.9207 333.45L542.01447 333.575Q541.76447 334.52814 541.06134 335.0594Q540.3582 335.59064 539.2801 335.59064Q537.9207 335.59064 537.1082 334.7469Q536.31134 333.90314 536.31134 332.3875Q536.31134 330.825 537.12384 329.96564Q537.93634 329.09064 539.2176 329.09064Q540.4676 329.09064 541.24884 329.9344Q542.0457 330.77814 542.0457 332.325Q542.0457 332.41876 542.0457 332.60626L537.4051 332.60626Q537.4676 333.6375 537.9832 334.1844Q538.49884 334.71564 539.2801 334.71564Q539.8582 334.71564 540.26447 334.41876Q540.68634 334.10626 540.9207 333.45ZM537.4676 331.7469L540.93634 331.7469Q540.87384 330.95 540.5457 330.5594Q540.0301 329.95 539.2332 329.95Q538.49884 329.95 537.99884 330.4344Q537.51447 330.91876 537.4676 331.7469ZM547.70197 335.45L547.70197 334.66876Q547.1082 335.59064 545.9676 335.59064Q545.2176 335.59064 544.5926 335.1844Q543.9676 334.7625 543.62384 334.02814Q543.2801 333.29376 543.2801 332.34064Q543.2801 331.41876 543.5926 330.65314Q543.9051 329.8875 544.5301 329.4969Q545.1551 329.09064 545.9207 329.09064Q546.4832 329.09064 546.9207 329.325Q547.3582 329.5594 547.63947 329.9344L547.63947 326.85626L548.68634 326.85626L548.68634 335.45L547.70197 335.45ZM544.37384 332.34064Q544.37384 333.54376 544.87384 334.1375Q545.37384 334.71564 546.06134 334.71564Q546.74884 334.71564 547.2332 334.15314Q547.7176 333.59064 547.7176 332.4344Q547.7176 331.15314 547.2176 330.5594Q546.7332 329.96564 546.01447 329.96564Q545.31134 329.96564 544.8426 330.54376Q544.37384 331.10626 544.37384 332.34064ZM555.87384 334.0594L555.87384 331.7L553.5457 331.7L553.5457 330.71564L555.87384 330.71564L555.87384 328.3875L556.87384 328.3875L556.87384 330.71564L559.2176 330.71564L559.2176 331.7L556.87384 331.7L556.87384 334.0594L555.87384 334.0594Z" fill-rule="nonzero"/><path fill="#000000" d="M488.74884 349.45L488.74884 340.85626L489.88947 340.85626L489.88947 348.4344L494.12384 348.4344L494.12384 349.45L488.74884 349.45ZM497.98322 349.45L497.98322 341.8719L495.1551 341.8719L495.1551 340.85626L501.9676 340.85626L501.9676 341.8719L499.12384 341.8719L499.12384 349.45L497.98322 349.45ZM502.45197 345.2625Q502.45197 343.1219 503.5926 341.91876Q504.74884 340.7 506.56134 340.7Q507.76447 340.7 508.7176 341.27814Q509.67072 341.84064 510.17072 342.85626Q510.67072 343.8719 510.67072 345.16876Q510.67072 346.46564 510.13947 347.4969Q509.60822 348.52814 508.63947 349.0594Q507.68634 349.59064 506.56134 349.59064Q505.3426 349.59064 504.38947 349.0125Q503.43634 348.41876 502.93634 347.41876Q502.45197 346.40314 502.45197 345.2625ZM503.62384 345.27814Q503.62384 346.84064 504.45197 347.73126Q505.29572 348.6219 506.56134 348.6219Q507.8426 348.6219 508.67072 347.73126Q509.49884 346.825 509.49884 345.15314Q509.49884 344.10626 509.13947 343.325Q508.79572 342.54376 508.10822 342.1219Q507.42072 341.6844 506.57697 341.6844Q505.37384 341.6844 504.49884 342.5125Q503.62384 343.34064 503.62384 345.27814ZM516.87384 348.0594L516.87384 345.7L514.5457 345.7L514.5457 344.71564L516.87384 344.71564L516.87384 342.3875L517.87384 342.3875L517.87384 344.71564L520.2176 344.71564L520.2176 345.7L517.87384 345.7L517.87384 348.0594L516.87384 348.0594ZM530.43634 340.85626L531.57697 340.85626L531.57697 345.825Q531.57697 347.1219 531.2801 347.8875Q530.9832 348.6375 530.2176 349.1219Q529.45197 349.59064 528.2176 349.59064Q527.01447 349.59064 526.2332 349.1844Q525.4676 348.7625 525.13947 347.98126Q524.81134 347.1844 524.81134 345.825L524.81134 340.85626L525.95197 340.85626L525.95197 345.8094Q525.95197 346.9344 526.1551 347.46564Q526.37384 347.9969 526.87384 348.29376Q527.38947 348.575 528.12384 348.575Q529.37384 348.575 529.9051 348.0125Q530.43634 347.4344 530.43634 345.8094L530.43634 340.85626ZM533.7957 349.45L533.7957 340.85626L537.0457 340.85626Q537.88947 340.85626 538.3426 340.9344Q538.9832 341.04376 539.4051 341.34064Q539.8426 341.6375 540.0926 342.16876Q540.3582 342.7 540.3582 343.34064Q540.3582 344.4344 539.6551 345.2Q538.9676 345.95 537.13947 345.95L534.93634 345.95L534.93634 349.45L533.7957 349.45ZM534.93634 344.95L537.1551 344.95Q538.26447 344.95 538.7176 344.54376Q539.18634 344.1219 539.18634 343.3719Q539.18634 342.84064 538.9051 342.46564Q538.63947 342.075 538.20197 341.95Q537.9051 341.8719 537.13947 341.8719L534.93634 341.8719L534.93634 344.95ZM540.9207 349.45L544.24884 344.96564L541.32697 340.85626L542.6707 340.85626L544.2332 343.0594Q544.7176 343.7469 544.9207 344.1219Q545.2176 343.65314 545.6082 343.1375L547.32697 340.85626L548.56134 340.85626L545.5457 344.90314L548.7957 349.45L547.38947 349.45L545.2332 346.3875Q545.0457 346.1219 544.8582 345.8094Q544.57697 346.27814 544.45197 346.45L542.2957 349.45L540.9207 349.45Z" fill-rule="nonzero"/></svg>